<svg width="60" height="60" viewBox="0 0 60 60" fill="none" xmlns="http://www.w3.org/2000/svg">
<g clip-path="url(#clip0_4012_16)">
<path d="M57.4563 24.011L51.7077 25.2359C52.042 26.8049 52.2104 28.4059 52.2097 30.0096C52.2087 32.0501 51.934 34.0807 51.3894 36.0463C50.6368 38.7627 49.3774 41.3271 47.6382 43.635C40.0952 53.6449 25.8657 55.6447 15.8558 48.1017C12.2717 45.4009 9.63537 41.7877 8.15614 37.6609C7.33589 35.3726 6.88623 32.9626 6.82486 30.5311C6.73876 27.1196 7.41757 23.7331 8.83347 20.6152C9.51811 19.1076 10.3718 17.6693 11.3891 16.3193C18.2982 7.15064 30.9463 4.61435 40.8033 10.2867C41.2462 10.5415 41.6817 10.812 42.1093 11.098L45.3769 6.21233C44.8377 5.85166 44.29 5.51169 43.735 5.19229C31.4195 -1.89481 15.4664 1.14195 6.69495 12.782C5.40322 14.4962 4.33378 16.3087 3.48176 18.1849C1.67095 22.1724 0.842249 26.4478 0.949044 30.6794C1.02609 33.732 1.58996 36.7618 2.62316 39.6442C4.4382 44.7078 7.70161 49.3168 12.3185 52.7959C24.9209 62.2925 42.8357 59.7747 52.3323 47.1723C54.5574 44.2195 56.1229 40.9751 57.0537 37.6157C57.745 35.1206 58.0862 32.562 58.0874 30.0123C58.0883 27.9944 57.8763 25.982 57.4563 24.011Z" fill="white"/>
<path fill-rule="evenodd" clip-rule="evenodd" d="M54.7086 4.34387C54.7086 4.34387 57.5674 7.0652 59.7183 11.0784L28.7732 41.8958L16.6152 25.8418L21.3117 19.3503L29.3874 29.9442L54.7086 4.34387Z" fill="#009BDE"/>
<mask id="mask0_4012_16" style="mask-type:luminance" maskUnits="userSpaceOnUse" x="16" y="4" width="44" height="38">
<path fill-rule="evenodd" clip-rule="evenodd" d="M54.7086 4.34387C54.7086 4.34387 57.5674 7.0652 59.7183 11.0784L28.7732 41.8958L16.6152 25.8418L21.3117 19.3503L29.3874 29.9442L54.7086 4.34387Z" fill="white"/>
</mask>
<g mask="url(#mask0_4012_16)">
<ellipse cx="36.534" cy="22.7933" rx="42.45" ry="42.9398" fill="white"/>
<mask id="mask1_4012_16" style="mask-type:luminance" maskUnits="userSpaceOnUse" x="-6" y="-21" width="85" height="87">
<ellipse cx="36.534" cy="22.7933" rx="42.45" ry="42.9398" fill="white"/>
</mask>
<g mask="url(#mask1_4012_16)">
<ellipse cx="52.7806" cy="16.1059" rx="22.0111" ry="22.1738" fill="#FFC400"/>
<ellipse cx="70.2494" cy="11.5304" rx="22.0111" ry="22.1738" fill="#20F884"/>
<ellipse cx="26.9265" cy="48.1348" rx="29.6975" ry="29.9171" fill="#FF38EB"/>
<ellipse cx="17.493" cy="33.7042" rx="16.7704" ry="16.8943" fill="#46D3FF"/>
</g>
</g>
</g>
<defs>
<clipPath id="clip0_4012_16">
<rect width="60" height="60" fill="white"/>
</clipPath>
</defs>
</svg>
